<svg width="183" height="62" viewBox="0 0 183 62" fill="none" xmlns="http://www.w3.org/2000/svg">
<path d="M8.88281 6.00781V19.0391H11.7422L22.3828 6.00781H29.9297L17.0156 21.5469L31.2891 38H23.5078L11.7891 24.1484H8.88281V38H2.8125V6.00781H8.88281ZM53.1094 31.8594H39.3047L37.3125 38H30.8906L41.5312 6.00781H50.6484L61.4531 38H55.1484L53.1094 31.8594ZM51.7031 27.3828L46.1719 10.7188L40.7344 27.3828H51.7031ZM87.9609 15.3359H82.0312C82 15.0391 81.9844 14.8203 81.9844 14.6797C81.8438 12.8828 81.4453 11.7578 80.7891 11.3047C80.1328 10.8359 78.5859 10.6016 76.1484 10.6016C73.2734 10.6016 71.3906 10.8672 70.5 11.3984C69.625 11.9297 69.1875 13.0469 69.1875 14.75C69.1875 16.7656 69.5469 17.9766 70.2656 18.3828C70.9844 18.7891 73.3594 19.1016 77.3906 19.3203C82.1562 19.5859 85.2344 20.2656 86.625 21.3594C88.0312 22.4531 88.7344 24.7266 88.7344 28.1797C88.7344 32.4297 87.9141 35.1797 86.2734 36.4297C84.6328 37.6641 81.0156 38.2812 75.4219 38.2812C70.3906 38.2812 67.0469 37.6719 65.3906 36.4531C63.75 35.2344 62.9297 32.7656 62.9297 29.0469L62.9062 27.875H68.8125L68.8359 28.5547C68.8359 30.7891 69.2266 32.1562 70.0078 32.6562C70.7891 33.1562 72.9219 33.4062 76.4062 33.4062C79.125 33.4062 80.8594 33.1172 81.6094 32.5391C82.3594 31.9609 82.7344 30.625 82.7344 28.5312C82.7344 26.9844 82.4453 25.9609 81.8672 25.4609C81.3047 24.9453 80.0781 24.6328 78.1875 24.5234L74.8359 24.3125C69.7734 24.0156 66.5391 23.3125 65.1328 22.2031C63.7266 21.0938 63.0234 18.7109 63.0234 15.0547C63.0234 11.3203 63.8672 8.83594 65.5547 7.60156C67.2578 6.35156 70.6484 5.72656 75.7266 5.72656C80.5391 5.72656 83.7812 6.29687 85.4531 7.4375C87.125 8.57813 87.9609 10.8047 87.9609 14.1172V15.3359Z" fill="#4B8BBD"/>
<path d="M99.0234 6.00781V19.0391H101.883L112.523 6.00781H120.07L107.156 21.5469L121.43 38H113.648L101.93 24.1484H99.0234V38H92.9531V6.00781H99.0234ZM144.469 6.00781H150.539V27.2891C150.539 31.7422 149.68 34.6875 147.961 36.125C146.258 37.5625 142.766 38.2812 137.484 38.2812C131.906 38.2812 128.25 37.6016 126.516 36.2422C124.781 34.8828 123.914 32.0156 123.914 27.6406V6.00781H129.984V27.6406C129.984 30 130.406 31.5 131.25 32.1406C132.094 32.7656 134.078 33.0781 137.203 33.0781C140.406 33.0781 142.414 32.7578 143.227 32.1172C144.055 31.4766 144.469 29.9062 144.469 27.4062V6.00781ZM179.883 15.3359H173.953C173.922 15.0391 173.906 14.8203 173.906 14.6797C173.766 12.8828 173.367 11.7578 172.711 11.3047C172.055 10.8359 170.508 10.6016 168.07 10.6016C165.195 10.6016 163.312 10.8672 162.422 11.3984C161.547 11.9297 161.109 13.0469 161.109 14.75C161.109 16.7656 161.469 17.9766 162.188 18.3828C162.906 18.7891 165.281 19.1016 169.312 19.3203C174.078 19.5859 177.156 20.2656 178.547 21.3594C179.953 22.4531 180.656 24.7266 180.656 28.1797C180.656 32.4297 179.836 35.1797 178.195 36.4297C176.555 37.6641 172.938 38.2812 167.344 38.2812C162.312 38.2812 158.969 37.6719 157.312 36.4531C155.672 35.2344 154.852 32.7656 154.852 29.0469L154.828 27.875H160.734L160.758 28.5547C160.758 30.7891 161.148 32.1562 161.93 32.6562C162.711 33.1562 164.844 33.4062 168.328 33.4062C171.047 33.4062 172.781 33.1172 173.531 32.5391C174.281 31.9609 174.656 30.625 174.656 28.5312C174.656 26.9844 174.367 25.9609 173.789 25.4609C173.227 24.9453 172 24.6328 170.109 24.5234L166.758 24.3125C161.695 24.0156 158.461 23.3125 157.055 22.2031C155.648 21.0938 154.945 18.7109 154.945 15.0547C154.945 11.3203 155.789 8.83594 157.477 7.60156C159.18 6.35156 162.57 5.72656 167.648 5.72656C172.461 5.72656 175.703 6.29687 177.375 7.4375C179.047 8.57813 179.883 10.8047 179.883 14.1172V15.3359Z" fill="#F8AE37"/>
<path d="M79.0078 41.0039V50.1562H79.6992L82.7227 45.7969H85.8398L81.9375 51.0703L86.6367 57H83.3086L79.6641 52.0312H79.0078V57H76.3242V41.0039H79.0078Z" fill="#4B8BBD"/>
<path d="M103.547 45.7969L101.039 57H97.0781L95.9531 51.9844C95.7578 51.1172 95.6133 50.457 95.5195 50.0039L95.3203 49.0195L95.1211 48.0352H95.0391L94.8398 49.0195L94.6406 50.0156C94.5547 50.4531 94.4141 51.1094 94.2188 51.9844L93.0938 57H89.0742L86.5781 45.7969H89.2852L90.3633 50.9883C90.4961 51.6367 90.6289 52.332 90.7617 53.0742L90.9492 54.1172L91.1484 55.1602H91.1953L91.4297 54.1172L91.6523 53.0742C91.7695 52.5508 91.9297 51.8594 92.1328 51L93.3516 45.7969H96.7734L97.9922 51C98.2188 51.9766 98.3789 52.668 98.4727 53.0742L98.6953 54.1172L98.918 55.1602H98.9766L99.1758 54.1172L99.3633 53.0742C99.4961 52.3555 99.6328 51.6602 99.7734 50.9883L100.863 45.7969H103.547Z" fill="#F8AE37"/>
</svg>
